<svg xmlns="http://www.w3.org/2000/svg" viewBox="0 0 1200 280" fill="none">
  <defs>
    <linearGradient id="iconGrad" x1="70" y1="52" x2="300" y2="220" gradientUnits="userSpaceOnUse">
      <stop offset="0%" stop-color="#5BC0FF"/>
      <stop offset="46%" stop-color="#2563EB"/>
      <stop offset="100%" stop-color="#1D3A8A"/>
    </linearGradient>

    <linearGradient id="textGrad" x1="355" y1="40" x2="1120" y2="210" gradientUnits="userSpaceOnUse">
      <stop offset="0%" stop-color="#1E40AF"/>
      <stop offset="60%" stop-color="#1D4ED8"/>
      <stop offset="100%" stop-color="#1E3A8A"/>
    </linearGradient>

    <filter id="softGlow" x="-8%" y="-8%" width="116%" height="116%">
      <feGaussianBlur stdDeviation="0.7" result="blur"/>
      <feMerge>
        <feMergeNode in="blur"/>
        <feMergeNode in="SourceGraphic"/>
      </feMerge>
    </filter>

    <filter id="textDepth" x="-6%" y="-8%" width="112%" height="120%">
      <feOffset dy="1"/>
      <feGaussianBlur stdDeviation="0.8" result="shadow"/>
      <feColorMatrix
        in="shadow"
        type="matrix"
        values="0 0 0 0 0.03
                0 0 0 0 0.05
                0 0 0 0 0.10
                0 0 0 0.24 0"/>
      <feBlend in="SourceGraphic" mode="normal"/>
    </filter>
  </defs>

  <g filter="url(#softGlow)">
    <path d="M70 148C118 145 158 130 205 95H290L235 148L290 201H205C158 166 118 151 70 148Z" fill="url(#iconGrad)"/>
    <path d="M85 102C130 100 162 89 198 66H257L217 102H85Z" fill="url(#iconGrad)" opacity="0.62"/>
    <path d="M85 194H217L257 230H198C162 207 130 196 85 194Z" fill="url(#iconGrad)" opacity="0.18"/>
  </g>

  <g transform="translate(355 30)" fill="url(#textGrad)" filter="url(#textDepth)">
    <path fill-rule="evenodd" d="
      M0 40H88L138 90V150L88 200H0V40Z
      M34 74V166H74L104 138V102L74 74H34Z
    "/>

    <path fill-rule="evenodd" d="
      M182 200L238 40H316L372 200H334L321 162H233L220 200H182Z
      M245 128H309L287 70H267L245 128Z
    "/>

    <path d="
      M430 40
      H576
      V74
      H464
      V103
      H576
      V137
      H542
      V166
      H576
      V200
      H430
      V166
      H542
      V137
      H430
      V103
      H464
      V74
      H430
      Z
    "/>

    <path d="
      M636 40H670V104H756V40H790V200H756V138H670V200H636V40Z
    "/>
  </g>
</svg>